<svg xmlns="http://www.w3.org/2000/svg" width="15.971" height="26.117" viewBox="0 0 15.971 26.117"><defs><style>.a{fill:#fff;stroke:rgba(0,0,0,0);}</style></defs><path class="a" d="M10.9-26.036c0-1.667.39-2.448,1.845-2.98a6.686,6.686,0,0,0,4.541-6.705c0-4.257-3.051-6.918-7.486-6.918s-7.486,2.554-7.486,7.627H7.427a2.24,2.24,0,0,1,2.27-2.27c1.384,0,2.341.674,2.341,1.916a1.793,1.793,0,0,1-1.206,1.774l-1.313.568c-3.477,1.49-3.69,3.8-3.69,6.563v.426ZM5.085-20.821a3.278,3.278,0,0,0,3.335,3.3,3.317,3.317,0,0,0,3.406-3.3A3.281,3.281,0,0,0,8.42-24.049,3.241,3.241,0,0,0,5.085-20.821Z" transform="translate(-1.818 43.139)"/></svg>