<svg xmlns="http://www.w3.org/2000/svg" xmlns:xlink="http://www.w3.org/1999/xlink" width="122" height="38.327" viewBox="0 0 122 38.327"><defs><style>.a{fill:none;}.b{clip-path:url(#a);}.c{clip-path:url(#b);}.d{clip-path:url(#c);}.e{isolation:isolate;}.f{clip-path:url(#e);}.g{clip-path:url(#f);}.h{clip-path:url(#g);}.i{fill:#dd2e44;}</style><clipPath id="a"><path class="a" d="M154.932,55.539a48.6,48.6,0,0,0-.155-4.938,4.228,4.228,0,0,0-.635-1.882,4,4,0,0,0-3.577-1.705h-3.291v17.05h3.291a4,4,0,0,0,3.577-1.705,3.527,3.527,0,0,0,.488-1.07,11.072,11.072,0,0,0,.219-1.82Q154.934,58.179,154.932,55.539Zm7.466-2.474v4.948a30.294,30.294,0,0,1-.194,3.753,10.588,10.588,0,0,1-.885,3.056,9.961,9.961,0,0,1-2.079,2.9q-2.969,2.971-8.176,2.971H139.818V40.38h11.246a11.044,11.044,0,0,1,8.173,2.973,9.961,9.961,0,0,1,2.079,2.9,10.59,10.59,0,0,1,.885,3.056,30.3,30.3,0,0,1,.2,3.751ZM133.682,70.7h-7.445V56.179l-4.305,7.489H117.17l-4.3-7.489V70.7H105.4V40.38h7.34l6.8,13.37,6.82-13.37h7.321Zm-34.394,0H91.824V40.38h7.464Zm-51.416,0H40.4V40.38h7.472Z" transform="translate(-40.4 -40.38)"/></clipPath><clipPath id="b"><rect class="a" width="137.436" height="45.876" transform="translate(0)"/></clipPath><clipPath id="c"><rect class="a" width="38.327" height="38.327" transform="translate(0 0)"/></clipPath><clipPath id="e"><rect class="a" width="32.326" height="31.359"/></clipPath><clipPath id="f"><path class="a" d="M109.48,48.8c0-8.875,12.29-12.164,16.066-1.889,3.78-10.275,16.066-6.986,16.066,1.889,0,9.642-16.066,21.874-16.066,21.874S109.48,58.448,109.48,48.8" transform="translate(-109.48 -40.545)"/></clipPath><clipPath id="g"><rect class="a" width="38.521" height="38.327" transform="translate(0 0)"/></clipPath></defs><g transform="translate(-5 16.38)"><g class="b" transform="translate(5 -12.241)"><g class="c" transform="translate(-7.82 -7.816)"><rect width="123.932" height="32.253" transform="translate(6.852 6.849)"/></g></g><g class="d" transform="translate(15.279 -16.38)"><g class="c" transform="translate(-18.099 -3.678)"><g class="e" transform="translate(21.099 6.775)"><g class="f" transform="translate(0 0)"><g class="g" transform="translate(0.093 1.073)"><g class="h" transform="translate(-3.19 -4.171)"><rect class="i" width="34.076" height="32.057" transform="translate(2.222 3.204)"/></g></g></g></g></g></g></g></svg>