<svg xmlns="http://www.w3.org/2000/svg" width="398" height="118" viewBox="0 0 398 118"><defs><style>.a{fill:#fff;}.b{fill:#333;}.c{fill:#202020;}</style></defs><g transform="translate(-278 -1321)"><rect width="398" height="118" rx="20" transform="translate(278 1321)"/><path class="a" d="M2.6,22h8.37c6.138,0,9.7-4.588,9.7-10.633,0-6.076-3.565-10.726-9.7-10.726H2.6Zm4.309-3.813V4.454h4.061c3.565,0,5.394,3.255,5.394,6.913s-1.829,6.82-5.394,6.82Zm23.994,4.092a7.552,7.552,0,1,0,0-15.1,7.552,7.552,0,1,0,0,15.1Zm0-3.782a3.61,3.61,0,0,1-3.658-3.751,3.66,3.66,0,1,1,7.316,0A3.61,3.61,0,0,1,30.907,18.5ZM58.559,7.554l-2.728,8.8-2.759-8.8h-3.41l-2.759,8.8-2.728-8.8h-4.4L45.043,22h3.472L51.4,12.607,54.374,22h3.472L62.961,7.554Zm15.066-.372c-1.426,0-3.72.837-4.34,2.79V7.554H65.224V22h4.061V14.591a3.083,3.083,0,0,1,3.255-3.41c1.395,0,2.759,1.023,2.759,3.317V22H79.36V14.064C79.391,9.724,77.407,7.182,73.625,7.182ZM83.266,22h4.061V-.165H83.266Zm15.035.279a7.552,7.552,0,1,0-7.781-7.533A7.516,7.516,0,0,0,98.3,22.279Zm0-3.782a3.61,3.61,0,0,1-3.658-3.751,3.66,3.66,0,1,1,7.316,0A3.61,3.61,0,0,1,98.3,18.5ZM120.156,7.554V9.29a5.717,5.717,0,0,0-4.65-2.077,7.147,7.147,0,0,0-7.1,7.533,7.147,7.147,0,0,0,7.1,7.533,5.9,5.9,0,0,0,4.65-2.077V22h4.061V7.554ZM116.281,18.5a3.744,3.744,0,0,1-3.751-3.751,3.751,3.751,0,1,1,3.751,3.751ZM139.19-.165V9.29a5.717,5.717,0,0,0-4.65-2.077,7.147,7.147,0,0,0-7.1,7.533,7.147,7.147,0,0,0,7.1,7.533,5.9,5.9,0,0,0,4.65-2.077V22h4.061V-.165ZM135.315,18.5a3.744,3.744,0,0,1-3.751-3.751,3.751,3.751,0,1,1,3.751,3.751Zm27.993-14.88h.93V-.165H162.5c-4.123,0-6.355,2.48-6.355,6.82v.9h-2.728v3.131h2.728V22h4.061V10.685h3.162V7.554h-3.162v-.93C160.239,4.888,160.983,3.617,163.308,3.617Zm9.3,18.662a7.552,7.552,0,1,0-7.781-7.533A7.516,7.516,0,0,0,172.608,22.279Zm0-3.782a3.61,3.61,0,0,1-3.658-3.751,3.66,3.66,0,1,1,7.316,0A3.61,3.61,0,0,1,172.608,18.5ZM191.859,7.182c-1.8,0-3.441,1.023-4.247,3.441V7.554h-4.03V22h4.061V17.04c0-4.123,1.426-6.045,3.5-6.045a4.214,4.214,0,0,1,2.077.527l.93-3.875A5.155,5.155,0,0,0,191.859,7.182ZM2.6,59H15V55.187H6.913V37.641H2.6ZM19.685,41.981a2.5,2.5,0,0,0,2.573-2.449,2.578,2.578,0,0,0-5.146,0A2.522,2.522,0,0,0,19.685,41.981ZM17.67,59h4.061V44.554H17.67ZM34.224,44.182c-1.426,0-3.72.837-4.34,2.79V44.554H25.823V59h4.061V51.591a3.083,3.083,0,0,1,3.255-3.41c1.4,0,2.759,1.023,2.759,3.317V59h4.061V51.064C39.99,46.724,38.006,44.182,34.224,44.182Zm19.53.372v7.409A3.073,3.073,0,0,1,50.5,55.342c-1.4,0-2.759-1.023-2.759-3.286v-7.5H43.679V52.49c-.031,4.34,1.953,6.851,5.735,6.851,1.426,0,3.72-.806,4.34-2.7V59h4.061V44.554ZM75.888,59l-5.673-7.843,4.774-6.6H70.215l-2.232,3.317-2.294-3.317H60.884l4.774,6.6L59.923,59H64.7l3.255-4.619L71.145,59Z" transform="translate(416 1351)"/><g transform="translate(309.769 1339.808)"><path class="b" d="M63.907,63.34l0,0a7.5,7.5,0,0,1-1.112-3.047,6.05,6.05,0,0,0-1.628-3.459l-.006-.006a4.244,4.244,0,0,0-.62-.45,4.048,4.048,0,0,0-.636-.306,17.855,17.855,0,0,0-.571-12.206A40.978,40.978,0,0,0,52.15,32.377c-2.628-3.315-5.2-6.462-5.148-11.11.078-7.094.78-20.25-11.7-20.267q-.761,0-1.589.064c-13.95,1.123-10.25,15.862-10.457,20.8a17.835,17.835,0,0,1-3.469,9.982c-2.916,3.467-7.022,9.08-8.967,14.923a17.823,17.823,0,0,0-.952,8.228c-.126.113-.246.232-.361.354-.856.915-1.489,2.022-2.193,2.767a6.8,6.8,0,0,1-2.628,1.277,4.722,4.722,0,0,0-2.851,2.235s0,0,0,0a.021.021,0,0,1,0,.006A3.975,3.975,0,0,0,1.4,63.549a12.186,12.186,0,0,0,.181,1.826,8.029,8.029,0,0,1,.127,3.207c-.816,2.232-.921,3.775-.346,4.9a4.146,4.146,0,0,0,3.1,1.9c2.677.558,6.3.42,9.158,1.934l.246-.463-.243.464a13.011,13.011,0,0,0,8.632,1.6,5.605,5.605,0,0,0,4-3.121c1.934-.009,4.058-.829,7.459-1.016,2.308-.186,5.19.82,8.505.636a4.527,4.527,0,0,0,.383,1.034l.006.009A6.2,6.2,0,0,0,48.822,80a11.279,11.279,0,0,0,7.448-4.309l-.4-.337.4.333c2.087-2.531,5.552-3.581,7.85-4.966A3.718,3.718,0,0,0,66.276,67.9C66.347,66.639,65.608,65.228,63.907,63.34Z" transform="translate(0 0)"/><path class="a" d="M480.436,598.095c-.044.777-.607,1.355-1.647,1.981-2.078,1.254-5.762,2.344-8.114,5.194a10.3,10.3,0,0,1-6.727,3.939,5.043,5.043,0,0,1-5.2-2.976l0,0,0-.006c-.693-1.317-.4-3.395.179-5.587a37.407,37.407,0,0,0,1.534-6.271v-.006a33.582,33.582,0,0,1,.643-5.97,4.64,4.64,0,0,1,2.112-3.25c.052-.028.1-.054.153-.079.124,2.029,1.129,4.1,2.905,4.548,1.944.512,4.745-1.155,5.928-2.516.237-.009.467-.021.691-.027a3.635,3.635,0,0,1,2.8.813l0,0,0,0a5.4,5.4,0,0,1,1.291,2.9,7.674,7.674,0,0,0,1.352,3.513h0v0C479.959,596.1,480.481,597.317,480.436,598.095Z" transform="translate(-415.209 -530.257)"/><path class="a" d="M36.147,605.348v.012a4.4,4.4,0,0,1-3.711,4.292,12.094,12.094,0,0,1-7.91-1.508h0c-3.195-1.692-6.995-1.524-9.433-2.033a3.144,3.144,0,0,1-2.379-1.349c-.365-.712-.373-1.953.4-4.069l0-.009,0-.009a8.1,8.1,0,0,0-.087-3.695,5.208,5.208,0,0,1,.138-3.091l0-.007a3.556,3.556,0,0,1,2.278-1.737,7.306,7.306,0,0,0,3.021-1.528l.006,0,0,0c.837-.883,1.467-1.992,2.2-2.777a2.872,2.872,0,0,1,2.18-1.109.167.167,0,0,0,.032,0,3.548,3.548,0,0,1,.522.043,5.419,5.419,0,0,1,3.372,2.474l3.016,5.5v0l0,0a37.894,37.894,0,0,0,3.933,5.4C35.181,602.016,36.292,603.9,36.147,605.348Z" transform="translate(-10.416 -531.764)"/><path class="a" d="M272.238,192.4a2.908,2.908,0,0,0-1.579-1.271h0a24.523,24.523,0,0,1-3.489-1.439,7.374,7.374,0,0,0-4-1.376,4.719,4.719,0,0,0-1.541.262,7.571,7.571,0,0,0-2.768,1.937h0v0a7.212,7.212,0,0,1-.588.446c-.342.25-.854.625-1.591,1.178a1.6,1.6,0,0,0-.641,1.879,4.538,4.538,0,0,0,2.269,2.36l0,0h0a16.352,16.352,0,0,1,2.023,1.648,4.536,4.536,0,0,0,1.067.662,4.335,4.335,0,0,0,1.478.327,5.713,5.713,0,0,0,3.332-.858,15.19,15.19,0,0,1,2.563-1.44h0a5.386,5.386,0,0,0,3.507-2.788A1.835,1.835,0,0,0,272.238,192.4Z" transform="translate(-231.465 -170.055)"/><path class="c" d="M276.6,235.826a11.046,11.046,0,0,1-4.915,1.662,6.786,6.786,0,0,1-4.221-1.633c-.508-.4-.921-.8-1.233-1.094-.54-.426-.475-1.025-.254-1.007.372.046.428.536.663.755.317.3.714.681,1.195,1.062a6.189,6.189,0,0,0,3.85,1.5,10.635,10.635,0,0,0,4.616-1.582,24.79,24.79,0,0,0,2.142-1.507c.514-.377.5-.832.92-.782s.11.5-.484,1.022A13.312,13.312,0,0,1,276.6,235.826Z" transform="translate(-240.42 -210.81)"/><path class="a" d="M192.251,291.467c-.2-.007-.4-.006-.589,0h-.053c.495-1.562-.6-2.715-3.516-4.034-3.024-1.33-5.434-1.2-5.841,1.5-.026.141-.047.286-.063.431a4.587,4.587,0,0,0-.682.3,5.731,5.731,0,0,0-2.626,3.917,33.844,33.844,0,0,0-.672,6.165v0a23.973,23.973,0,0,1-1.051,4.469c-4.954,3.535-11.83,5.066-17.668,1.08-.4-.625-.849-1.245-1.316-1.857-.3-.39-.605-.778-.909-1.162a3.676,3.676,0,0,0,1.52-.284,1.925,1.925,0,0,0,1.05-1.084c.356-.957,0-2.308-1.141-3.851a20.9,20.9,0,0,0-5.9-5.021h0a8.358,8.358,0,0,1-3.793-4.609,10.339,10.339,0,0,1-.049-5.432,32.245,32.245,0,0,1,4.2-9.13c.356-.262.127.486-1.339,3.209-1.314,2.489-3.77,8.234-.407,12.718a26.667,26.667,0,0,1,2.132-9.49c1.864-4.224,5.761-11.55,6.071-17.388.16.116.708.486.953.626h0a17.748,17.748,0,0,1,1.947,1.6,4.812,4.812,0,0,0,2.883,1.12q.189.011.37.011a6.447,6.447,0,0,0,3.294-.946,16.776,16.776,0,0,1,2.447-1.389h0a6.572,6.572,0,0,0,3.441-2.314,79.711,79.711,0,0,0,5.736,14.772,34.4,34.4,0,0,1,3.64,9.972,6.118,6.118,0,0,1,1.689.215c2.125-5.51-1.8-11.443-3.6-13.1-.725-.7-.76-1.019-.4-1a18.98,18.98,0,0,1,5.436,9.1,11.658,11.658,0,0,1,.06,5.51c.222.092.449.193.678.3C191.6,288.051,192.857,289.5,192.251,291.467Z" transform="translate(-134.011 -235.705)"/><path class="a" d="M357.137,124.65a5.949,5.949,0,0,1-.506,2.529,4.895,4.895,0,0,1-.709,1.183q-.141-.068-.293-.13c-.351-.15-.661-.274-.94-.379s-.5-.177-.719-.254a3.134,3.134,0,0,0,.6-.718,3.781,3.781,0,0,0,.286-1.374c0-.02.006-.038.006-.062a3.807,3.807,0,0,0-.2-1.333,2.461,2.461,0,0,0-.613-1.039,1.261,1.261,0,0,0-.88-.4h-.046a1.291,1.291,0,0,0-.857.34,2.453,2.453,0,0,0-.689.991,3.818,3.818,0,0,0-.286,1.378.43.43,0,0,0,0,.058,4.044,4.044,0,0,0,.055.79,10.029,10.029,0,0,0-2-.68,6.777,6.777,0,0,1-.056-.754v-.071a5.853,5.853,0,0,1,.5-2.529,4.486,4.486,0,0,1,1.419-1.861,3.134,3.134,0,0,1,1.956-.7h.034a3.15,3.15,0,0,1,1.935.659,4.416,4.416,0,0,1,1.453,1.833,5.9,5.9,0,0,1,.55,2.45A.239.239,0,0,0,357.137,124.65Z" transform="translate(-316.204 -107.711)"/><path class="a" d="M262.7,133.148c-.093.027-.183.055-.273.086a5.547,5.547,0,0,0-1.3.625,3.532,3.532,0,0,0,.014-.847.27.27,0,0,1,0-.047,3.677,3.677,0,0,0-.269-1.086,2.091,2.091,0,0,0-.546-.8.892.892,0,0,0-.606-.254l-.065,0a.881.881,0,0,0-.622.364,2.1,2.1,0,0,0-.4.882,3.542,3.542,0,0,0-.075,1.161c0,.017,0,.03,0,.047a3.59,3.59,0,0,0,.268,1.09,2.074,2.074,0,0,0,.546.8c.038.032.075.062.111.088-.232.18-.388.307-.58.447l-.438.321a4,4,0,0,1-.91-1.355,6.068,6.068,0,0,1-.506-2.158V132.5a6.061,6.061,0,0,1,.254-2.2,3.781,3.781,0,0,1,.944-1.653,2.03,2.03,0,0,1,1.378-.665l.12,0a2.052,2.052,0,0,1,1.326.5,3.853,3.853,0,0,1,1.127,1.537,5.978,5.978,0,0,1,.5,2.159v.006A6.383,6.383,0,0,1,262.7,133.148Z" transform="translate(-232.457 -115.283)"/><path class="c" d="M344.051,202.4c.06.191.368.16.546.251.156.081.282.257.458.262s.429-.058.451-.224c.029-.22-.292-.359-.5-.44a1.054,1.054,0,0,0-.855-.018C344.094,202.264,344.031,202.338,344.051,202.4Z" transform="translate(-311.448 -182.619)"/><path class="c" d="M309.973,202.4c-.06.191-.368.16-.546.251-.156.081-.282.257-.458.262s-.429-.058-.45-.224c-.029-.22.292-.359.5-.44a1.054,1.054,0,0,1,.855-.018C309.931,202.264,309.993,202.338,309.973,202.4Z" transform="translate(-279.191 -182.619)"/></g></g></svg>