<svg xmlns="http://www.w3.org/2000/svg" width="398" height="118" viewBox="0 0 398 118"><defs><style>.a{fill:#fff;}</style></defs><g transform="translate(-278 -1321)"><rect width="398" height="118" rx="20" transform="translate(278 1321)"/><path class="a" d="M2.6,22h8.37c6.138,0,9.7-4.588,9.7-10.633,0-6.076-3.565-10.726-9.7-10.726H2.6Zm4.309-3.813V4.454h4.061c3.565,0,5.394,3.255,5.394,6.913s-1.829,6.82-5.394,6.82Zm23.994,4.092a7.552,7.552,0,1,0,0-15.1,7.552,7.552,0,1,0,0,15.1Zm0-3.782a3.61,3.61,0,0,1-3.658-3.751,3.66,3.66,0,1,1,7.316,0A3.61,3.61,0,0,1,30.907,18.5ZM58.559,7.554l-2.728,8.8-2.759-8.8h-3.41l-2.759,8.8-2.728-8.8h-4.4L45.043,22h3.472L51.4,12.607,54.374,22h3.472L62.961,7.554Zm15.066-.372c-1.426,0-3.72.837-4.34,2.79V7.554H65.224V22h4.061V14.591a3.083,3.083,0,0,1,3.255-3.41c1.395,0,2.759,1.023,2.759,3.317V22H79.36V14.064C79.391,9.724,77.407,7.182,73.625,7.182ZM83.266,22h4.061V-.165H83.266Zm15.035.279a7.552,7.552,0,1,0-7.781-7.533A7.516,7.516,0,0,0,98.3,22.279Zm0-3.782a3.61,3.61,0,0,1-3.658-3.751,3.66,3.66,0,1,1,7.316,0A3.61,3.61,0,0,1,98.3,18.5ZM120.156,7.554V9.29a5.717,5.717,0,0,0-4.65-2.077,7.147,7.147,0,0,0-7.1,7.533,7.147,7.147,0,0,0,7.1,7.533,5.9,5.9,0,0,0,4.65-2.077V22h4.061V7.554ZM116.281,18.5a3.744,3.744,0,0,1-3.751-3.751,3.751,3.751,0,1,1,3.751,3.751ZM139.19-.165V9.29a5.717,5.717,0,0,0-4.65-2.077,7.147,7.147,0,0,0-7.1,7.533,7.147,7.147,0,0,0,7.1,7.533,5.9,5.9,0,0,0,4.65-2.077V22h4.061V-.165ZM135.315,18.5a3.744,3.744,0,0,1-3.751-3.751,3.751,3.751,0,1,1,3.751,3.751Zm27.993-14.88h.93V-.165H162.5c-4.123,0-6.355,2.48-6.355,6.82v.9h-2.728v3.131h2.728V22h4.061V10.685h3.162V7.554h-3.162v-.93C160.239,4.888,160.983,3.617,163.308,3.617Zm9.3,18.662a7.552,7.552,0,1,0-7.781-7.533A7.516,7.516,0,0,0,172.608,22.279Zm0-3.782a3.61,3.61,0,0,1-3.658-3.751,3.66,3.66,0,1,1,7.316,0A3.61,3.61,0,0,1,172.608,18.5ZM191.859,7.182c-1.8,0-3.441,1.023-4.247,3.441V7.554h-4.03V22h4.061V17.04c0-4.123,1.426-6.045,3.5-6.045a4.214,4.214,0,0,1,2.077.527l.93-3.875A5.155,5.155,0,0,0,191.859,7.182ZM27.218,59l-2.6-21.359h-3.72L14.353,51.653,7.75,37.641H4.092L1.457,59h4.4l1.55-13.237,5.27,10.819h3.379l5.208-10.819L22.816,59ZM41.447,44.554V46.29a5.717,5.717,0,0,0-4.65-2.077,7.147,7.147,0,0,0-7.1,7.533,7.147,7.147,0,0,0,7.1,7.533,5.9,5.9,0,0,0,4.65-2.077V59h4.061V44.554ZM37.572,55.5a3.744,3.744,0,0,1-3.751-3.751A3.751,3.751,0,1,1,37.572,55.5Zm19.065,3.782a7.332,7.332,0,0,0,6.107-3.1L59.706,54.04A3.837,3.837,0,0,1,56.668,55.5a3.767,3.767,0,1,1,0-7.533,3.837,3.837,0,0,1,3.038,1.457l3.038-2.139a7.412,7.412,0,0,0-6.107-3.1c-4.216,0-7.936,2.945-7.936,7.533S52.421,59.279,56.637,59.279Zm19.127,0a10.959,10.959,0,1,0-10.85-10.943A10.889,10.889,0,0,0,75.764,59.279Zm0-4.03c-3.844,0-6.541-3.069-6.541-6.913s2.7-6.913,6.541-6.913a6.593,6.593,0,0,1,6.541,6.913A6.593,6.593,0,0,1,75.764,55.249Zm21.266,4.03c4.03,0,7.657-2.232,7.657-6.479,0-3.627-2.821-5.332-6.045-6.231l-2.387-.682c-2.232-.62-2.387-1.736-2.387-2.263,0-1.426,1.271-2.449,2.945-2.449a2.65,2.65,0,0,1,2.914,2.7h4.309c0-4.061-3.1-6.51-7.13-6.51-4.092,0-7.378,2.542-7.378,6.355,0,1.922.837,4.743,5.518,5.983l2.6.744c1.829.558,2.7,1.4,2.7,2.573,0,1.519-1.271,2.511-3.193,2.511-1.984,0-3.472-1.271-3.5-2.821H89.342C89.342,56.489,92.473,59.279,97.03,59.279Z" transform="translate(416 1351)"/><g transform="translate(307.774 1331.24)"><path class="a" d="M64.353,64.473q-.619,1.792-1.3,3.428a40.222,40.222,0,0,1-3.976,7.144,36,36,0,0,1-5.116,6.186,9.9,9.9,0,0,1-6.579,2.895A16.542,16.542,0,0,1,41.3,82.678a17.4,17.4,0,0,0-6.54-1.447,18,18,0,0,0-6.727,1.447A18.065,18.065,0,0,1,22.219,84.2q-3.373.146-6.727-2.973a38.162,38.162,0,0,1-5.354-6.4A44.274,44.274,0,0,1,4.477,63.578,41.159,41.159,0,0,1,2.1,50.178a24.473,24.473,0,0,1,3.214-12.8,18.854,18.854,0,0,1,6.731-6.809A18.109,18.109,0,0,1,21.145,28a21.43,21.43,0,0,1,7.038,1.638,22.631,22.631,0,0,0,5.583,1.642,33.4,33.4,0,0,0,6.19-1.934,20.467,20.467,0,0,1,8.416-1.494q9.326.753,14,7.369-8.34,5.054-8.256,14.143a15.609,15.609,0,0,0,5.12,11.758A16.926,16.926,0,0,0,64.353,64.473ZM48.712,10.3a14.525,14.525,0,0,1,.074,1.479,15.778,15.778,0,0,1-4.039,10.342c-3.249,3.8-7.179,5.992-11.439,5.646a11.477,11.477,0,0,1-.086-1.4A16.2,16.2,0,0,1,37.51,15.919,16.541,16.541,0,0,1,42.732,12,15.6,15.6,0,0,1,48.712,10.3Z" transform="translate(0 0)"/></g></g></svg>