<svg xmlns="http://www.w3.org/2000/svg" width="398" height="118" viewBox="0 0 398 118"><defs><style>.a{fill:#fff;}</style></defs><g transform="translate(-278 -1321)"><rect width="398" height="118" rx="20" transform="translate(278 1321)"/><path class="a" d="M2.6,22h8.37c6.138,0,9.7-4.588,9.7-10.633,0-6.076-3.565-10.726-9.7-10.726H2.6Zm4.309-3.813V4.454h4.061c3.565,0,5.394,3.255,5.394,6.913s-1.829,6.82-5.394,6.82Zm23.994,4.092a7.552,7.552,0,1,0,0-15.1,7.552,7.552,0,1,0,0,15.1Zm0-3.782a3.61,3.61,0,0,1-3.658-3.751,3.66,3.66,0,1,1,7.316,0A3.61,3.61,0,0,1,30.907,18.5ZM58.559,7.554l-2.728,8.8-2.759-8.8h-3.41l-2.759,8.8-2.728-8.8h-4.4L45.043,22h3.472L51.4,12.607,54.374,22h3.472L62.961,7.554Zm15.066-.372c-1.426,0-3.72.837-4.34,2.79V7.554H65.224V22h4.061V14.591a3.083,3.083,0,0,1,3.255-3.41c1.395,0,2.759,1.023,2.759,3.317V22H79.36V14.064C79.391,9.724,77.407,7.182,73.625,7.182ZM83.266,22h4.061V-.165H83.266Zm15.035.279a7.552,7.552,0,1,0-7.781-7.533A7.516,7.516,0,0,0,98.3,22.279Zm0-3.782a3.61,3.61,0,0,1-3.658-3.751,3.66,3.66,0,1,1,7.316,0A3.61,3.61,0,0,1,98.3,18.5ZM120.156,7.554V9.29a5.717,5.717,0,0,0-4.65-2.077,7.147,7.147,0,0,0-7.1,7.533,7.147,7.147,0,0,0,7.1,7.533,5.9,5.9,0,0,0,4.65-2.077V22h4.061V7.554ZM116.281,18.5a3.744,3.744,0,0,1-3.751-3.751,3.751,3.751,0,1,1,3.751,3.751ZM139.19-.165V9.29a5.717,5.717,0,0,0-4.65-2.077,7.147,7.147,0,0,0-7.1,7.533,7.147,7.147,0,0,0,7.1,7.533,5.9,5.9,0,0,0,4.65-2.077V22h4.061V-.165ZM135.315,18.5a3.744,3.744,0,0,1-3.751-3.751,3.751,3.751,0,1,1,3.751,3.751Zm27.993-14.88h.93V-.165H162.5c-4.123,0-6.355,2.48-6.355,6.82v.9h-2.728v3.131h2.728V22h4.061V10.685h3.162V7.554h-3.162v-.93C160.239,4.888,160.983,3.617,163.308,3.617Zm9.3,18.662a7.552,7.552,0,1,0-7.781-7.533A7.516,7.516,0,0,0,172.608,22.279Zm0-3.782a3.61,3.61,0,0,1-3.658-3.751,3.66,3.66,0,1,1,7.316,0A3.61,3.61,0,0,1,172.608,18.5ZM191.859,7.182c-1.8,0-3.441,1.023-4.247,3.441V7.554h-4.03V22h4.061V17.04c0-4.123,1.426-6.045,3.5-6.045a4.214,4.214,0,0,1,2.077.527l.93-3.875A5.155,5.155,0,0,0,191.859,7.182ZM23.095,37.641,18.724,51.56,15.779,40.648h-3.5L9.269,51.56,4.929,37.641H.279L7.5,59h3.441l3.038-11.594L17.081,59h3.441l7.254-21.359Zm8.99,4.34a2.5,2.5,0,0,0,2.573-2.449,2.578,2.578,0,0,0-5.146,0A2.522,2.522,0,0,0,32.085,41.981ZM30.07,59h4.061V44.554H30.07ZM46.624,44.182c-1.426,0-3.72.837-4.34,2.79V44.554H38.223V59h4.061V51.591a3.083,3.083,0,0,1,3.255-3.41c1.4,0,2.759,1.023,2.759,3.317V59h4.061V51.064C52.39,46.724,50.406,44.182,46.624,44.182Zm20.522-7.347V46.29a5.717,5.717,0,0,0-4.65-2.077,7.147,7.147,0,0,0-7.1,7.533,7.147,7.147,0,0,0,7.1,7.533,5.9,5.9,0,0,0,4.65-2.077V59h4.061V36.835ZM63.271,55.5a3.744,3.744,0,0,1-3.751-3.751A3.751,3.751,0,1,1,63.271,55.5Zm18.91,3.782A7.552,7.552,0,1,0,74.4,51.746,7.516,7.516,0,0,0,82.181,59.279Zm0-3.782a3.768,3.768,0,1,1,3.658-3.751A3.61,3.61,0,0,1,82.181,55.5Zm27.652-10.943-2.728,8.8-2.759-8.8h-3.41l-2.759,8.8-2.728-8.8h-4.4L96.317,59h3.472l2.883-9.393L105.648,59h3.472l5.115-14.446ZM121.52,59.279c2.976,0,6.076-1.488,6.076-4.526,0-1.178-.434-3.348-3.906-4.278l-2.387-.62c-.806-.217-1.426-.558-1.426-1.24,0-.744.744-1.209,1.674-1.209a1.566,1.566,0,0,1,1.767,1.488h3.875c.031-3.41-3.069-4.712-5.7-4.712-3.348,0-5.673,2.077-5.673,4.309,0,1.519.5,3.6,4.216,4.588l1.922.465c1.085.279,1.581.589,1.581,1.209,0,.837-.9,1.333-2.077,1.333a1.9,1.9,0,0,1-2.139-1.736h-3.813C115.537,57.543,118.482,59.279,121.52,59.279Z" transform="translate(416 1351)"/><path class="a" d="M0,9.62,27.681,5.85l.012,26.7L.025,32.708ZM27.668,35.627l.021,26.724L.021,58.546l0-23.1Zm3.356-30.27L67.726,0V32.211l-36.7.291ZM67.734,35.878l-.009,32.066-36.7-5.18-.051-26.945Z" transform="translate(312.796 1345.826)"/></g></svg>